<svg width="24" height="24" viewBox="0 0 24 24" fill="none" xmlns="http://www.w3.org/2000/svg">
<g clip-path="url(#clip0_851_1286)">
<path d="M12 19.0987C11.713 19.0987 11.4346 19.0448 11.1648 18.9372C10.8951 18.8296 10.6712 18.6861 10.4933 18.5067L0.591927 8.60538C0.197309 8.21076 0 7.70852 0 7.09865C0 6.48879 0.197309 5.98655 0.591927 5.59193C0.986546 5.19731 1.48879 5 2.09865 5C2.70852 5 3.21076 5.19731 3.60538 5.59193L12 13.9865L20.3946 5.59193C20.7892 5.19731 21.2915 5 21.9013 5C22.5112 5 23.0135 5.19731 23.4081 5.59193C23.8027 5.98655 24 6.48879 24 7.09865C24 7.70852 23.8027 8.21076 23.4081 8.60538L13.5067 18.5067C13.2915 18.722 13.0583 18.8748 12.8072 18.9652C12.5561 19.0556 12.287 19.1001 12 19.0987Z" fill="#850000"/>
</g>
<defs>
<clipPath id="clip0_851_1286">
<rect width="24" height="24" fill="white"/>
</clipPath>
</defs>
</svg>
