<svg width="80" height="72" viewBox="0 0 80 72" fill="none" xmlns="http://www.w3.org/2000/svg">
<path d="M40 57.7467C45 57.7467 49.2507 56.0189 52.752 52.5633C56.2533 49.1077 58.0027 44.9138 58 39.9817C58 35.047 56.2493 30.8518 52.748 27.3962C49.2467 23.9406 44.9973 22.2141 40 22.2167C35 22.2167 30.7493 23.9445 27.248 27.4001C23.7467 30.8557 21.9973 35.0496 22 39.9817C22 44.9164 23.7507 49.1116 27.252 52.5672C30.7533 56.0228 35.0027 57.7493 40 57.7467ZM8 71.5639C5.80001 71.5639 3.91601 70.7902 2.34801 69.2426C0.780006 67.6951 -0.00265987 65.837 6.79117e-06 63.6684V16.295C6.79117e-06 14.1237 0.784007 12.2643 2.35201 10.7168C3.92001 9.16928 5.80267 8.39683 8 8.39947H20.6L28 0.503906H52L59.4 8.39947H72C74.2 8.39947 76.084 9.17323 77.652 10.7208C79.22 12.2683 80.0027 14.1264 80 16.295V63.6684C80 65.8397 79.216 67.6991 77.648 69.2466C76.08 70.7941 74.1973 71.5666 72 71.5639H8Z" fill="white"/>
</svg>
