<svg width="28" height="29" viewBox="0 0 28 29" fill="none" xmlns="http://www.w3.org/2000/svg">
<path d="M8.68114 1.52061L8.25175 2.31539H2.52656C1.47098 2.31539 0.618164 3.11017 0.618164 4.09391C0.618164 5.07766 1.47098 5.87244 2.52656 5.87244H25.4273C26.4829 5.87244 27.3357 5.07766 27.3357 4.09391C27.3357 3.11017 26.4829 2.31539 25.4273 2.31539H19.7021L19.2727 1.52061C18.9507 0.914802 18.2887 0.536865 17.5671 0.536865H10.3868C9.66516 0.536865 9.00318 0.914802 8.68114 1.52061ZM25.4273 7.65096H2.52656L3.79087 26.4922C3.88629 27.8983 5.13868 28.9932 6.64751 28.9932H21.3064C22.8152 28.9932 24.0676 27.8983 24.163 26.4922L25.4273 7.65096Z" fill="#888888"/>
</svg>
