<svg width="35" height="30" viewBox="0 0 35 30" fill="none" xmlns="http://www.w3.org/2000/svg">
<path d="M10.5 30C9.44444 30 8.54167 29.6178 7.79167 28.8533C7.04167 28.0889 6.66667 27.1794 6.66667 26.125V10.6667L3.625 3.33333H0V0H5.875L8.625 6.66667H33.25C33.8889 6.66667 34.375 6.93056 34.7083 7.45833C35.0417 7.98611 35.0556 8.52778 34.75 9.08333L30 18.375C31.4167 18.5972 32.6044 19.25 33.5633 20.3333C34.5222 21.4167 35.0011 22.6944 35 24.1667C35 25.7778 34.4378 27.1528 33.3133 28.2917C32.1889 29.4306 30.82 30 29.2067 30C27.5678 30 26.1861 29.4306 25.0617 28.2917C23.9372 27.1528 23.375 25.7778 23.375 24.1667C23.375 23.6111 23.4444 23.0972 23.5833 22.625C23.7222 22.1528 23.9167 21.6944 24.1667 21.25L18.7083 20.75L13.7083 28.25C13.3472 28.8056 12.8817 29.2361 12.3117 29.5417C11.7417 29.8472 11.1378 30 10.5 30ZM26.4167 18.125L30.5417 10L10 10.0417L12.0833 15C12.3056 15.5556 12.66 16.0211 13.1467 16.3967C13.6333 16.7722 14.1956 16.9872 14.8333 17.0417L26.4167 18.125ZM10.5417 26.625C10.5972 26.625 10.7222 26.5556 10.9167 26.4167L14.9583 20.4167C13.5972 20.2778 12.5278 19.9517 11.75 19.4383C10.9722 18.925 10.3889 18.39 10 17.8333V26.1667C10 26.3056 10.0556 26.4167 10.1667 26.5C10.2778 26.5833 10.4028 26.625 10.5417 26.625ZM29.1667 26.6667C29.8889 26.6667 30.4861 26.4233 30.9583 25.9367C31.4306 25.45 31.6667 24.86 31.6667 24.1667C31.6667 23.4444 31.4306 22.8472 30.9583 22.375C30.4861 21.9028 29.8889 21.6667 29.1667 21.6667C28.4722 21.6667 27.8817 21.9028 27.395 22.375C26.9083 22.8472 26.6656 23.4444 26.6667 24.1667C26.6667 24.8611 26.91 25.4517 27.3967 25.9383C27.8833 26.425 28.4733 26.6678 29.1667 26.6667Z" fill="white"/>
</svg>
