<svg width="92" height="99" viewBox="0 0 92 99" fill="none" xmlns="http://www.w3.org/2000/svg">
<path d="M45.7469 4.19617e-05C51.8133 4.19617e-05 57.6312 2.60267 61.9208 7.23539C66.2104 11.8681 68.6203 18.1514 68.6203 24.7031C68.6203 31.2547 66.2104 37.538 61.9208 42.1707C57.6312 46.8035 51.8133 49.4061 45.7469 49.4061C39.6805 49.4061 33.8625 46.8035 29.5729 42.1707C25.2833 37.538 22.8734 31.2547 22.8734 24.7031C22.8734 18.1514 25.2833 11.8681 29.5729 7.23539C33.8625 2.60267 39.6805 4.19617e-05 45.7469 4.19617e-05ZM45.7469 61.7576C71.022 61.7576 91.4938 72.8122 91.4938 86.4606V98.8121H0V86.4606C0 72.8122 20.4717 61.7576 45.7469 61.7576Z" fill="black"/>
</svg>
