<svg width="21" height="21" viewBox="0 0 21 21" fill="none" xmlns="http://www.w3.org/2000/svg">
<path d="M19.6899 1.0023C19.5062 0.816503 19.2874 0.669113 19.0462 0.568711C18.805 0.468309 18.5463 0.416903 18.285 0.417485H12.8387C12.4815 0.418151 12.1389 0.559675 11.8853 0.811346L0.997668 11.6968C0.626159 12.0691 0.417511 12.5735 0.417511 13.0994C0.417511 13.6254 0.626159 14.1298 0.997668 14.5021L6.18121 19.6856C6.55358 20.0573 7.0582 20.2661 7.58431 20.2661C8.11043 20.2661 8.61505 20.0573 8.98741 19.6856L19.8706 8.80464C20.1228 8.55147 20.2648 8.20899 20.2658 7.85166V2.4023C20.2674 2.14241 20.2174 1.88479 20.1185 1.64445C20.0196 1.4041 19.8739 1.18581 19.6899 1.0023ZM16.0127 6.08837C15.7323 6.08837 15.4582 6.00522 15.225 5.84944C14.9919 5.69366 14.8102 5.47224 14.7029 5.21319C14.5956 4.95413 14.5675 4.66908 14.6222 4.39407C14.6769 4.11906 14.8119 3.86644 15.0102 3.66817C15.2085 3.4699 15.4611 3.33487 15.7361 3.28017C16.0111 3.22547 16.2962 3.25354 16.5552 3.36085C16.8143 3.46815 17.0357 3.64986 17.1915 3.88301C17.3472 4.11615 17.4304 4.39025 17.4304 4.67065C17.4304 5.04665 17.281 5.40726 17.0151 5.67313C16.7493 5.939 16.3887 6.08837 16.0127 6.08837Z" fill="#8F8F8F"/>
</svg>
