<svg width="50" height="50" viewBox="0 0 50 50" fill="none" xmlns="http://www.w3.org/2000/svg">
<path d="M25 0C38.8075 0 50 11.1925 50 25C50 38.8075 38.8075 50 25 50C11.1925 50 0 38.8075 0 25C0 11.1925 11.1925 0 25 0ZM25 5C19.6957 5 14.6086 7.10714 10.8579 10.8579C7.10714 14.6086 5 19.6957 5 25C5 30.3043 7.10714 35.3914 10.8579 39.1421C14.6086 42.8929 19.6957 45 25 45C30.3043 45 35.3914 42.8929 39.1421 39.1421C42.8929 35.3914 45 30.3043 45 25C45 19.6957 42.8929 14.6086 39.1421 10.8579C35.3914 7.10714 30.3043 5 25 5ZM25 10C25.6123 10.0001 26.2033 10.2249 26.6609 10.6318C27.1185 11.0387 27.4109 11.5994 27.4825 12.2075L27.5 12.5V23.965L34.2675 30.7325C34.7159 31.1824 34.9762 31.7861 34.9956 32.421C35.015 33.0558 34.792 33.6743 34.3719 34.1507C33.9518 34.6271 33.3661 34.9258 32.7338 34.986C32.1015 35.0462 31.47 34.8635 30.9675 34.475L30.7325 34.2675L23.2325 26.7675C22.8439 26.3786 22.5944 25.8725 22.5225 25.3275L22.5 25V12.5C22.5 11.837 22.7634 11.2011 23.2322 10.7322C23.7011 10.2634 24.337 10 25 10Z" fill="black"/>
</svg>
