<svg width="95" height="101" viewBox="0 0 95 101" fill="none" xmlns="http://www.w3.org/2000/svg">
<path d="M47.4999 0.0709686C38.8002 0.0709686 31.1326 5.82726 28.6751 14.1911C26.0701 13.0103 23.3176 12.3707 20.4668 12.3707C15.2526 12.3707 10.2519 14.4441 6.56481 18.1348C2.87776 21.8254 0.806396 26.831 0.806396 32.0504C0.818042 36.4086 2.27107 40.6403 4.93862 44.0848C7.60617 47.5293 11.3381 49.9927 15.5517 51.0904V86.1693H79.4482V51.0904C88.0988 48.8272 94.1935 41.0046 94.1935 32.0504C94.1935 26.831 92.1221 21.8254 88.4351 18.1348C84.748 14.4441 79.7473 12.3707 74.5331 12.3707C71.6823 12.3707 68.9298 13.0103 66.3248 14.1911C63.8673 5.82726 56.1997 0.0709686 47.4999 0.0709686ZM45.0424 44.3501H49.9575V78.7895H45.0424V44.3501ZM30.2971 54.1899H35.2122V78.7895H30.2971V54.1899ZM59.7877 54.1899H64.7028V78.7895H59.7877V54.1899ZM15.5517 91.0892V96.0091C15.5517 97.314 16.0696 98.5654 16.9913 99.488C17.9131 100.411 19.1633 100.929 20.4668 100.929H74.5331C75.8366 100.929 77.0868 100.411 78.0086 99.488C78.9303 98.5654 79.4482 97.314 79.4482 96.0091V91.0892H15.5517Z" fill="black"/>
</svg>
