<svg width="18" height="13" viewBox="0 0 18 13" fill="none" xmlns="http://www.w3.org/2000/svg">
<path d="M9 0C4.90909 0 1.41545 2.54455 0 6.13636C1.41545 9.72818 4.90909 12.2727 9 12.2727C13.0909 12.2727 16.5845 9.72818 18 6.13636C16.5845 2.54455 13.0909 0 9 0ZM9 10.2273C6.74182 10.2273 4.90909 8.39455 4.90909 6.13636C4.90909 3.87818 6.74182 2.04545 9 2.04545C11.2582 2.04545 13.0909 3.87818 13.0909 6.13636C13.0909 8.39455 11.2582 10.2273 9 10.2273ZM9 3.68182C7.64182 3.68182 6.54545 4.77818 6.54545 6.13636C6.54545 7.49455 7.64182 8.59091 9 8.59091C10.3582 8.59091 11.4545 7.49455 11.4545 6.13636C11.4545 4.77818 10.3582 3.68182 9 3.68182Z" fill="#C0C0C0"/>
</svg>
